<svg width="40" height="40" viewBox="0 0 40 40" fill="none" xmlns="http://www.w3.org/2000/svg">
<path d="M20 40C31.0457 40 40 31.0457 40 20C40 8.9543 31.0457 0 20 0C8.9543 0 0 8.9543 0 20C0 31.0457 8.9543 40 20 40Z" fill="#EEEFF4"/>
<path d="M13 17.25L20.5 12L28 17.25V25.5C28 25.898 27.8244 26.279 27.5118 26.561C27.1993 26.842 26.7754 27 26.3333 27H14.6667C14.2246 27 13.8007 26.842 13.4882 26.561C13.1756 26.279 13 25.898 13 25.5V17.25Z" stroke="#737297" stroke-width="2" stroke-linecap="round" stroke-linejoin="round"/>
<path d="M18.0002 27V19.5H23.0002V27" stroke="#737297" stroke-width="2" stroke-linecap="round" stroke-linejoin="round"/>
</svg>
