<svg width="40" height="40" viewBox="0 0 40 40" fill="none" xmlns="http://www.w3.org/2000/svg">
<path d="M20 40C31.0457 40 40 31.0457 40 20C40 8.9543 31.0457 0 20 0C8.9543 0 0 8.9543 0 20C0 31.0457 8.9543 40 20 40Z" fill="#EEEFF4"/>
<path d="M28 27V25.333C28 24.449 27.605 23.601 26.902 22.976C26.198 22.351 25.245 22 24.25 22H16.75C15.755 22 14.802 22.351 14.098 22.976C13.395 23.601 13 24.449 13 25.333V27" stroke="#737297" stroke-width="2" stroke-linecap="round" stroke-linejoin="round"/>
<path d="M20.5 18.667C22.571 18.667 24.25 17.174 24.25 15.333C24.25 13.492 22.571 12 20.5 12C18.429 12 16.75 13.492 16.75 15.333C16.75 17.174 18.429 18.667 20.5 18.667Z" stroke="#737297" stroke-width="2" stroke-linecap="round" stroke-linejoin="round"/>
</svg>
